<svg id="Сгруппировать_2468" data-name="Сгруппировать 2468" xmlns="http://www.w3.org/2000/svg" xmlns:xlink="http://www.w3.org/1999/xlink" width="50" height="52.834" viewBox="0 0 50 52.834">
  <defs>
    <clipPath id="clip-path">
      <rect id="Прямоугольник_34" data-name="Прямоугольник 34" width="50" height="52.834" fill="#8f7c77"/>
    </clipPath>
  </defs>
  <g id="Сгруппировать_23" data-name="Сгруппировать 23" clip-path="url(#clip-path)">
    <path id="Контур_218" data-name="Контур 218" d="M50.831,0c.1.311-.157.5-.257.735-.05.121-.159.243-.056.374.091.115.218.021.33.022.285,0,.56-.4.825-.094.188.217.059.555.085.838.008.084,0,.169.015.252.071.466-.1.519-.457.276a.137.137,0,0,0-.045-.022c-.249-.061-.542-.382-.728-.134s.091.558.232.82a.359.359,0,0,0,.1.112,1.911,1.911,0,0,1,.764,2.407c.54-.591,1.366-.7,1.911-1.25a.478.478,0,0,1,.379-.114c.084.005.212.053.245.016.374-.422.822-.314,1.311-.3.327.008.637-.154.91.153.08.091.191.04.285.008a.468.468,0,0,1,.437.051A14.788,14.788,0,0,0,59.1,5.263a1.151,1.151,0,0,1,.528.455c.392.87,1.134.907,1.941,1.017.46.063.863.523,1.291.8.212.137.237.6.515.843.111.1.068.286.04.438a.81.81,0,0,0-.049.341,2.376,2.376,0,0,1-.334,1.759c-.151.331-.494.687-.182,1.144a.565.565,0,0,1-.137.7.609.609,0,0,1-.686.181c-.585-.168-.675-.109-.731.473-.017.174-.036.372-.181.456-.728.42-.831,1.373-1.559,1.795a.271.271,0,0,0-.057.468.333.333,0,0,1,.08.418.9.9,0,0,0-.013,1.031c.131.213-.092.327-.237.435a.51.51,0,0,0-.195.7c.255.578.1.876-.511,1.044a28.3,28.3,0,0,1-3.728.687,39.6,39.6,0,0,1-5.953.315,39.576,39.576,0,0,1-6.633-.662,3.708,3.708,0,0,1-.586-.153c-.458-.168-.6-.447-.368-.863.174-.318.146-.529-.145-.728A.4.4,0,0,1,41.1,17.7c.156-.206.219-.385-.051-.592a.371.371,0,0,1,0-.616c.35-.262.189-.474-.042-.64a2.624,2.624,0,0,1-1.007-1.232c-.054-.147-.161-.184-.308-.211a.729.729,0,0,1-.7-.866c.031-.344-.108-.487-.445-.238a.6.6,0,0,1-.671.027c-.249-.138-.247-.385-.22-.625a1.921,1.921,0,0,0-.386-1.235,6.6,6.6,0,0,1-.429-1.2,2.294,2.294,0,0,1,.141-1.733c.182-.4.31-.937.845-1.105.048-.015.118-.03.133-.065.353-.817,1.119-.477,1.711-.591a.462.462,0,0,0,.386-.242A3.655,3.655,0,0,1,41.28,5.389,5.305,5.305,0,0,0,42.6,4.465c.03-.039.08-.1.115-.093.564.052.984-.58,1.587-.331a.312.312,0,0,0,.285-.055c.073-.041.169-.122.224-.1.539.194,1.175.159,1.624.531.358.3.8.418,1.15.715a.6.6,0,0,0,.24.068c.176.043.229.385.436.257.246-.152.012-.4,0-.6a1.694,1.694,0,0,1,.617-1.478.863.863,0,0,0,.274-.29c.112-.269.385-.578.149-.836-.182-.2-.473.038-.69.138-.4.183-.575.092-.545-.353,0-.034,0-.068,0-.1.02-.3-.121-.668.071-.887.246-.282.538.117.828.107.111,0,.247.088.321-.042.062-.11-.017-.228-.067-.334C49.1.523,48.844.326,48.908,0ZM49.509,16.63c-.557.394-.553.39-.025.811a1.033,1.033,0,0,0,.429.252,3.051,3.051,0,0,0,2.126-.736.816.816,0,0,0,.043-.21c-.5.232-.791-.13-1.124-.35-.72-.477-.882-.457-1.449.233m-7.687-1.142c-.134-.1-.266-.2-.4-.3a1.528,1.528,0,0,1-.612-.9.272.272,0,0,1,.093-.318c.1-.062.191-.012.284.033.188.092.4.36.576.178.2-.2-.255-.335-.217-.463a.965.965,0,0,0-.584-1.262c-.093-.048-.019-.311-.19-.31s-.268.188-.354.33a1.564,1.564,0,0,0-.135.325c-.029.091-.115.193-.03.281s.184.015.273-.032c.122-.066.339-.113.257.083-.133.318.214.307.226.446.027.308-.379.131-.47.344a.288.288,0,0,0-.04.142c.092.532-.022,1.151.63,1.448a1.52,1.52,0,0,1,.526.552c.076-.227-.089-.47.173-.584a.651.651,0,0,0,.467.271,2.443,2.443,0,0,0,2.323-.822c.23-.279.343-.275.456.064.042.126.1.305.249.278.208-.038.106-.245.122-.382s-.078-.292.069-.369.244.076.354.142a2.758,2.758,0,0,0,3.712-.438c.094-.09.167-.247.321-.207s.123.217.139.344c.027.2.05.478.263.493.24.017.245-.274.289-.461.129-.555.185-.595.553-.185a2.737,2.737,0,0,0,3.55.392c.276-.182.568-.377.532.223-.008.129.032.3.218.266s.1-.209.137-.331c.058-.213-.269-.7.36-.563.094.02.081-.121.071-.2-.025-.213-.049-.427-.075-.653-.142.035-.094.3-.278.235-.139-.05-.1-.2-.095-.313a.852.852,0,0,0-.385-.729c-.165-.123-.656-.152-.084-.422.1-.049,0-.094-.045-.138-.277-.257-.024-.255.138-.248a.647.647,0,0,0,.76-.571c.007-.04.058-.071.086-.1.152.067.039.231.136.313.143-.037.138-.328.334-.23.159.079.03.243.019.366-.022.265.086.44.349.46.4.029.556.087.087.332a.1.1,0,0,0-.024.169c.372.433.029.344-.241.354-.143.005-.326.075-.356.231-.026.132.13.224.229.31.072.062.117.168.278.038.216-.175.446-.056.522.21.031.107.053.148.148.123.034-.009.087-.084.077-.1-.185-.4.151-.465.376-.617.117-.079.261-.186.132-.383-.149.068-.1.4-.3.312s-.073-.327-.083-.5a.121.121,0,0,1,.015-.048c.107-.266.456-.574.3-.773-.183-.228-.561-.006-.846.092A.223.223,0,0,1,57,11.672a.1.1,0,0,1,.019-.168c.459-.139.387-.659.761-.969A4.214,4.214,0,0,1,55.18,10c.308.345-.017.772.2,1.117.075.12.187.291.024.408-.179.128-.32-.025-.425-.153a.941.941,0,0,0-.73-.395c-.246,0-.383.048-.244.363a2.184,2.184,0,0,1,.1,1.455c-.045.174-.324.334-.171.478s.45.074.678.011a1.821,1.821,0,0,0,.318-.151c.128-.064.249-.238.4-.1.132.12.029.287-.016.426A2.2,2.2,0,0,1,53.2,14.9a2.444,2.444,0,0,1-2.331-1.478c-.1-.3-.212-.676.371-.443a.25.25,0,0,0,.19-.027c.268-.155.462-.156.568.193.053.174.233.109.345.079.155-.041.075-.15.016-.232-.109-.152-.027-.25.093-.336.451-.326.38-.622-.051-.9a.216.216,0,0,1-.084-.341c.262-.379,0-.365-.265-.372a1.012,1.012,0,0,0-.737.276.635.635,0,0,1-.589.218l0,.005c.445-.47.467-1.161.828-1.7-.48.042-.96.263-1.475.3-.5.04-.925-.438-1.469-.164.406-.185.4.161.37.313a.78.78,0,0,0,.371.9c.081.055.17.142.092.25s-.183.059-.273.008a2.137,2.137,0,0,0-.821-.373c-.243-.022-.615-.134-.413.371.08.2-.081.306-.2.425-.228.235-.264.464.029.676a.362.362,0,0,1,.166.475c-.112.273.052.308.274.315a2.315,2.315,0,0,0,1.1-.337c.132-.066.273-.2.416-.082.168.133.057.316.008.469a2.5,2.5,0,0,1-4.6.158c-.061-.153-.186-.331-.064-.475.15-.177.3.022.448.074.095.034.184.085.279.117a.962.962,0,0,0,.692.047c.271-.122-.048-.318.006-.48a3.442,3.442,0,0,1,.137-.322c.048-.106.158-.256.056-.323-.443-.289-.357-.672-.162-1.1a3,3,0,0,0-.8.234c-.233.1-.4.531-.655.312s.1-.475.194-.709a.428.428,0,0,0-.137-.5c-.1-.094-.2-.288-.361-.211a12.455,12.455,0,0,1-1.652.577c-.158.05-.351.133-.369.306s.186.26.309.37.427.139.317.369c-.086.181-.3.014-.455-.023-.049-.012-.1-.027-.147-.034-.319-.046-.656-.121-.41.414a.575.575,0,0,1-.025.392.453.453,0,0,0,.262.621c.139.076.341.1.295.342-.1.5.208.409.474.3a2.909,2.909,0,0,0,.6-.363c.237-.179.426-.172.59.085l0-.007a1.66,1.66,0,0,1-1.639,2.05,6.567,6.567,0,0,1-1.093-.12M48.029,19.5c-.169-.328-.233-.707-.551-.486s-.13.622-.13.944c0,.219.154.287.374.315.568.073,1.138.025,1.706.05a31,31,0,0,0,3.983-.124c.536-.045,1.067-.138,1.6-.209.309-.041.362-.252.346-.514-.011-.19-.011-.413-.267-.4-.767.025-1.5-.233-2.266-.227-.976.007-1.952-.018-2.928-.019s-.964,0-1.05.9c0,.01-.027.017-.047.029-.16-.076-.084-.231-.1-.348-.034-.205.053-.481-.256-.525-.335-.048-.4.215-.411.617m6.652-5.75a1.832,1.832,0,0,1-1.162-.223c.276-.539-.129-1.032-.1-1.552,0-.069.09-.139.149-.2a.388.388,0,0,0,.089-.413c-.169-.679-.091-.793.613-.678.455.075.517-.094.48-.463-.043-.429.07-.7.591-.578.256.061.374-.139.423-.339.059-.242-.181-.186-.3-.24a.979.979,0,0,0-.635-.107c-.4.091-.786.185-1.144-.188a.992.992,0,0,0-.648-.242c-.294-.009-.494.067-.474.421a3.222,3.222,0,0,1-.256,1.431c-.036.087-.091.264,0,.271.631.042.56.4.415.824a.228.228,0,0,0,.075.181c.381.351.491.706.058,1.1a.327.327,0,0,0-.05.236c.056.676.058.678-.643.65-.134-.005-.268-.032-.4-.041-.08-.005-.186-.027-.21.08a.233.233,0,0,0,.069.174,1.982,1.982,0,0,0,3.061-.105M45.7,10.943a.986.986,0,0,0,.133-.017c.272-.081.563-.285.822-.162.37.176.133.523.112.809a.486.486,0,0,0,.276.455c.219.1.248-.163.358-.267.162-.153.125-.326.043-.51-.124-.279-.189-.541.268-.541.173,0,.193-.11.144-.241a5.5,5.5,0,0,1-.338-1.779c-.011-.318-.194-.381-.487-.283a2.566,2.566,0,0,0-1.137.722c-.087.1-.219.33-.349.167-.218-.273-.4-.053-.584-.019-.108.02-.321-.009-.276.2a.275.275,0,0,0,.376.234c.582-.188.667.139.642.6-.011.2,0,.4,0,.629m12.316.209c.633.173.632.172.35.725-.037.072-.1.165-.076.227a2.255,2.255,0,0,0,.219.444.25.25,0,0,0,.167-.058c.216-.308.652-.427.714-.875.036-.263.2-.32.436-.159.126.086.247.24.444.1a.881.881,0,0,0-.053-1.594c-.306-.172-.776-.371-.981-.187a4.124,4.124,0,0,0-1.219,1.372m-15.7.191c-.2-.186-.469-.26-.5-.6-.028-.277-.92-.813-1.16-.786A1.714,1.714,0,0,0,39.46,11c-.025.126-.088.345.075.341.365-.01.395.265.5.477.135.283.263.3.477.068.371-.395.439-.377.673.108.036.076.042.186.1.228.2.144.477.417.607.362.258-.109.077-.406.012-.621-.177-.585-.178-.587.422-.626M41.31,16.649l.028.249a40.881,40.881,0,0,1,14.533-1.081,35.711,35.711,0,0,0-14.561.832m13.938,1.869.019-.138c-1-.077-1.992-.19-2.989-.224a38.479,38.479,0,0,0-9.678.911c-.246.055-.488.128-.731.2-.121.035-.241.1-.171.246.057.118.168.056.262.012a2.509,2.509,0,0,1,.463-.2,37.372,37.372,0,0,1,9.066-.986c1.254.013,2.507.116,3.761.178m-8.119-6.139a.661.661,0,0,0-.17.7c.171.625.114.681-.547.706a1.177,1.177,0,0,0-.584.052,1.93,1.93,0,0,0,2.044.727,1.905,1.905,0,0,0,1.413-1.074,2.828,2.828,0,0,1-1.482.215c-.239-.047-.392-.17-.309-.411.146-.424-.113-.651-.365-.917m.435-4.923a15.472,15.472,0,0,1-3.469.584.182.182,0,0,0-.192.189.8.8,0,0,0,.8.71,3.864,3.864,0,0,0,.829-.216,6.589,6.589,0,0,1,1.846-.773c.211-.029.228-.256.189-.495m1.8-7.106c.029.084.045.145.07.2.131.3.424.637.185.928-.2.246-.565.011-.856-.031a.533.533,0,0,1-.1-.021c-.255-.09-.32.027-.335.267-.024.387.163.351.435.276.949-.262.989-.224.861.713,0,.033-.015.066-.02.1-.026.156.056.221.2.216s.3.043.339-.133a1.05,1.05,0,0,0-.029-.347c-.083-.666.018-.765.66-.644.083.016.167.027.248.049.288.076.327-.1.3-.31-.061-.409-.331-.17-.5-.128-.734.183-.9.05-.662-.669C50.313.34,50.125.29,49.75.323c-.116.01-.233.016-.384.026M41.417,14.637a1.628,1.628,0,0,0,2.017.5,1.053,1.053,0,0,0,.692-1.286,1.922,1.922,0,0,1-1.112.545c-.315.019-.539-.059-.514-.434a.6.6,0,0,0-.507-.673c-.134.313.077.513.179.728.163.345.04.507-.3.569-.131.024-.265.028-.457.047m15.043-.786a.532.532,0,0,0,.165.43,1.814,1.814,0,0,0,2.291.516c.107-.077.242-.152.217-.309-.019-.123-.152-.11-.245-.137-.58-.171-.589-.175-.278-.751a.369.369,0,0,0-.073-.5c-.154-.127-.268.056-.38.142a.624.624,0,0,0-.22.537c0,.334-.165.436-.49.367a5.723,5.723,0,0,1-.987-.3m4.667-3.59c.415-.979.26-1.669-.415-2.051-.465-.263-.56-.228-.773.269a3.913,3.913,0,0,1-.292.587c-.171.265-.063.362.2.395a1.573,1.573,0,0,1,1.283.8M52.7,7.495c-.279-.088-.291.039-.238.254s.2.284.4.319a2.74,2.74,0,0,1,.729.183,10.928,10.928,0,0,0,2.208.475c.36.093.378-.267.481-.467.1-.183-.068-.226-.215-.226A13.246,13.246,0,0,1,52.7,7.495M43.695,9.219l.107-.062A1.464,1.464,0,0,0,43.64,8.8a2.584,2.584,0,0,1-.383-2.056A1.325,1.325,0,0,1,44.41,5.468a2.688,2.688,0,0,1,1.527.209,6.05,6.05,0,0,0,.782.279,4.378,4.378,0,0,0-1.618-.7,1.829,1.829,0,0,0-2.361,1.979,3.3,3.3,0,0,0,.954,1.987m-4.545,1.509a2.9,2.9,0,0,1,.672-.8c.228-.156.66-.129.674-.426.012-.238-.27-.481-.388-.737-.167-.364-.387-.354-.68-.16a1.439,1.439,0,0,0-.278,2.121M52.478,6.3c.149.084.225.008.31-.039a6.229,6.229,0,0,1,1.8-.875,2,2,0,0,1,2.095.522,2.1,2.1,0,0,1,.188,1.741,4.244,4.244,0,0,0-.18.939,2.627,2.627,0,0,0,.51-1.838A1.607,1.607,0,0,0,55.73,5.1a4.1,4.1,0,0,0-3.252,1.2M45.686,16.524a1.326,1.326,0,0,0-.737.315c-.588.43-.581.5.072.808a1.915,1.915,0,0,1,.339.213.329.329,0,0,0,.459.008c.26-.251.648-.368.783-.745a.145.145,0,0,0-.053-.13,3.242,3.242,0,0,0-.863-.469M51.315,4.909c-.207-.081.028-.438-.292-.45-.529-.019-.926-.194-.837-.849.021-.152-.089-.249-.252-.251s-.292.071-.276.227c.064.606-.254.851-.8.923a.25.25,0,0,0-.246.272c.028.19.2.165.323.141a7.391,7.391,0,0,1,2.382-.014m-2.126,1.3c-.138.444-.229.8-.361,1.145a3.652,3.652,0,0,0-.207,1.487c.018.475.422.3.653.35.323.074.139-.2.161-.332.1-.588-.095-1.171-.033-1.754a1.458,1.458,0,0,0-.213-.9m1.651.01c-.1.1-.138.122-.142.149-.145.91.085,1.825-.037,2.736-.014.1.1.123.179.136.122.02.242.014.286-.132s.062-.293.113-.431c.327-.88-.255-1.6-.4-2.458M48.176,9.6c.081-.524-.038-.957.047-1.394a10.029,10.029,0,0,1,.48-1.593.569.569,0,0,0-.175-.723.211.211,0,0,0-.28.008c-.106.091-.069.187.026.25.286.19.155.411.044.618a5.316,5.316,0,0,0-.476,1.9.969.969,0,0,0,.335.933m-6.652.3c-.953-1.222-1.594-2.467-.414-3.918a1.793,1.793,0,0,0-.966,1.6,2.916,2.916,0,0,0,1.38,2.32m17.433,5.936a2.687,2.687,0,0,1,.679-.9.95.95,0,0,0,.1-1.185c-.142-.281-.515-.4-.494-.769.006-.109.046-.253-.112-.293a.233.233,0,0,0-.179.06.226.226,0,0,0-.03.321c.316.3.137.551-.081.8a.731.731,0,0,0,.567.036c.128-.022.272-.111.367.035.082.126.008.26-.044.383a1.3,1.3,0,0,1-.576.682c-.388.2-.419.44-.2.832m-.4-6.132c.682-.836,1.4-1.706,1.166-2.89-.173-.883-.449-1.127-.949-1.19,1.24,1.451.653,2.761-.216,4.08m2.364,1.657a.809.809,0,0,0-.37,1.05.87.87,0,0,0,.114.151c.205-.348.591.066.855-.222.216-.236.552-.367.556.228.2-.138.46-.187.36-.452a.44.44,0,0,0-.51-.234c-.132.015-.262.06-.394.073-.506.047-.717-.16-.611-.593m-21.314.47c-.015.609-.214.746-.781.572a.878.878,0,0,0-.729.091.329.329,0,0,0-.173.34.3.3,0,0,0,.213.258c.162.053.253-.041.313-.178.151-.342.35-.247.542-.049a1.06,1.06,0,0,1,.141.253c.226-.135.1-.626.474-.306.087.074.2.191.3.087.064-.067.056-.223.044-.335a1.21,1.21,0,0,0-.348-.733M51.883,9.443a3.108,3.108,0,0,0-.19-2.412c-.126-.231-.325-.459-.106-.735.088-.111.209-.245.042-.33-.2-.1-.317.08-.352.247a1.333,1.333,0,0,0,.12.93,3.544,3.544,0,0,1,.4,2.048c-.008.086-.064.209.085.252M41.595,9.082a5.617,5.617,0,0,1-.369-2.547,1.769,1.769,0,0,0,.369,2.547M56.233,6.087a1.714,1.714,0,0,0-2.186.029c.732-.048,1.421.308,2.186-.029" transform="translate(-24.92)" fill="#8f7c77"/>
    <path id="Контур_219" data-name="Контур 219" d="M16.093,102.688c-.625-.2-1.289-.241-1.909-.478a6,6,0,0,1-1.672-.931,2.334,2.334,0,0,1-.406-3.189A4.591,4.591,0,0,1,15.9,96.1c.158-.009.388-.03.407.19.017.2-.213.18-.346.216-.325.086-.663.128-.984.228a2.5,2.5,0,0,0-1.878,2.162,2.4,2.4,0,0,0,1.318,2.384,5.114,5.114,0,0,0,3.047.748,10.788,10.788,0,0,0,6.687-3.018c.225-.193.329-.343.06-.6-2.117-2.058-3.97-4.369-6.136-6.38-.792-.735-1.54-1.511-2.268-2.309a3.76,3.76,0,0,0-1.762-1.138c-.19-.054-.578.041-.462-.347.1-.323.128-.764.668-.744a8.532,8.532,0,0,0,2.117-.1,6.356,6.356,0,0,0,4.825-8.172,6.233,6.233,0,0,0-3.217-3.355,12.61,12.61,0,0,0-7.721-1.189A11.883,11.883,0,0,0,4.785,76.78a7.128,7.128,0,0,0-3.148,5.98,2.694,2.694,0,0,0,2.621,2.9,4.718,4.718,0,0,0,3.129-.768c.114-.073.221-.156.337-.224s.265-.1.362.031.025.257-.081.356A5.807,5.807,0,0,1,4.3,86.82c-.219.011-.439,0-.657,0a3.411,3.411,0,0,1-3.435-2.6c-.067-.19-.137-.379-.205-.568V81.534a10.08,10.08,0,0,1,2.684-4.281,13.642,13.642,0,0,1,7.991-3.678,14.923,14.923,0,0,1,8.7,1.456,7.543,7.543,0,0,1,4.034,4.386,6.68,6.68,0,0,1-5.16,8.511,10.2,10.2,0,0,1-1.774.224.132.132,0,0,0,.061.2,19.5,19.5,0,0,1,4.79,5.02c1.09,1.458,2.194,2.905,3.332,4.327.286.357.445.365.746,0,1.307-1.568,2.489-3.231,3.724-4.854a18.487,18.487,0,0,1,4.284-4.4,1.8,1.8,0,0,0,.188-.169c-.125-.206-.311-.12-.46-.123a7.023,7.023,0,0,1-6.477-4.6,6.544,6.544,0,0,1,2.2-7.3A12.965,12.965,0,0,1,35.7,73.626a14.487,14.487,0,0,1,10.593,2.788,9.733,9.733,0,0,1,3.55,4.747c.043.127.1.249.155.373v2.227a8.689,8.689,0,0,1-.789,1.745,3.647,3.647,0,0,1-3.733,1.362A5.823,5.823,0,0,1,42.1,85.191c-.123-.115-.282-.235-.134-.421s.3-.068.445.027a4.992,4.992,0,0,0,3.027.963,2.843,2.843,0,0,0,2.952-3.017,7.177,7.177,0,0,0-3.9-6.369A12.778,12.778,0,0,0,31.9,76a5.654,5.654,0,0,0-3.312,4.155,6.333,6.333,0,0,0,3.36,6.67,6.968,6.968,0,0,0,3.667.754c.548-.024.791.214.839.746.022.254-.151.27-.317.3a3.084,3.084,0,0,0-1.7.932c-2.875,2.87-5.682,5.8-8.469,8.759-.3.313-.289.465.042.746a12.283,12.283,0,0,0,4.384,2.547,6.281,6.281,0,0,0,5.009-.28,2.5,2.5,0,0,0,1.524-2.469,2.578,2.578,0,0,0-2.05-2.235c-.308-.086-.626-.132-.936-.21-.1-.026-.263-.039-.233-.2.02-.114.143-.137.244-.137a4.207,4.207,0,0,1,.707.021,4.292,4.292,0,0,1,3.477,2.372,2.277,2.277,0,0,1-.766,2.869,7.428,7.428,0,0,1-5.395,1.224,11.809,11.809,0,0,1-6.52-2.983c-.234-.208-.431-.348-.731-.074a12.339,12.339,0,0,1-6.42,3.1,2.183,2.183,0,0,0-.288.089Z" transform="translate(0 -49.854)" fill="#8f7c77"/>
    <path id="Контур_220" data-name="Контур 220" d="M110.612,110.517c-1.752.161-3.265-.754-4.749-1.75a15.156,15.156,0,0,1-5.015-6.283,23.562,23.562,0,0,0-2.229-4.015,11.336,11.336,0,0,0-2.367-2.334,3.3,3.3,0,0,0-1.882-.657c-.154,0-.389.045-.384-.2,0-.2.207-.249.38-.26a5.01,5.01,0,0,1,2.561.436,10.582,10.582,0,0,1,4.088,3.744c1.1,1.6,1.892,3.378,2.9,5.034a16,16,0,0,0,3.907,4.463,5.245,5.245,0,0,0,4.489,1,2.626,2.626,0,0,0,.789-.33c.155-.093.335-.13.454.037a.368.368,0,0,1-.058.467,1.277,1.277,0,0,1-.641.383,6.4,6.4,0,0,1-2.238.269" transform="translate(-63.784 -64.474)" fill="#8f7c77"/>
    <path id="Контур_221" data-name="Контур 221" d="M3.344,110.292a6.122,6.122,0,0,1-1.849-.221,1.55,1.55,0,0,1-.757-.384.388.388,0,0,1-.107-.5c.13-.2.312-.146.49-.05a4.525,4.525,0,0,0,4.625-.281,12.66,12.66,0,0,0,4.052-4.1c.876-1.3,1.589-2.7,2.342-4.074a13.156,13.156,0,0,1,4.22-4.95,5.474,5.474,0,0,1,3.139-.97,2.285,2.285,0,0,1,.5.065c.131.032.268.105.251.271s-.184.192-.312.185a4.248,4.248,0,0,0-3.073,1.529,15.213,15.213,0,0,0-3.222,4.854,18.085,18.085,0,0,1-3.869,5.751,15.344,15.344,0,0,1-3.8,2.479,6,6,0,0,1-2.63.4" transform="translate(-0.39 -64.309)" fill="#8f7c77"/>
  </g>
</svg>
