<svg xmlns="http://www.w3.org/2000/svg" width="48" height="48"><path d="M16.7 10.14c-.309.192-.46.564-.46 1.132v.488h-4.732l-.234.234-.234.234v25.304l.234.234.234.234h25.304l.234-.234.234-.234V12.228l-.234-.234-.234-.234H32.08v-.488c0-.275-.054-.602-.124-.75-.166-.35-.565-.561-.93-.492-.51.096-.786.57-.786 1.351v.383l-1.46-.022-1.46-.022-.04-.614c-.033-.506-.074-.65-.233-.819-.415-.441-1.183-.315-1.411.231-.064.152-.116.494-.116.759v.483h-2.88v-.488c0-.87-.419-1.361-1.058-1.241-.474.089-.656.367-.702 1.075l-.04.614-1.368.022-1.369.022-.047-.622c-.044-.584-.064-.638-.33-.882-.325-.298-.672-.339-1.026-.12m-.441 3.948c.036.504.069.597.292.82.206.206.316.252.604.252.594 0 .923-.463.925-1.3v-.34h2.72l.005.38c.006.556.155.907.475 1.124.361.244.739.194 1.073-.14.214-.214.245-.307.273-.803l.032-.561h2.844l.031.557c.028.483.063.59.263.799.29.303.66.382.989.212.391-.202.495-.419.495-1.026v-.542h2.96v.34c.002.837.331 1.3.925 1.3.288 0 .398-.046.604-.252.223-.223.256-.316.292-.82l.04-.568h3.419V18H12.8v-4.48h3.419l.04.568M35.52 27.6v8.72H12.8V18.88h22.72v8.72" fill="#fff" fill-rule="evenodd"/></svg>