<svg xmlns="http://www.w3.org/2000/svg" xmlns:xlink="http://www.w3.org/1999/xlink" width="48" height="48" viewBox="0 0 48 48">
  <defs>
    <clipPath id="clip-path">
      <rect id="Прямоугольник_60" data-name="Прямоугольник 60" width="26.323" height="28.033" fill="#fff"/>
    </clipPath>
  </defs>
  <g id="Сгруппировать_2623" data-name="Сгруппировать 2623" transform="translate(-545 -324)">
    <g id="Прямоугольник_5185" data-name="Прямоугольник 5185" transform="translate(545 324)" fill="none" stroke="#fff" stroke-width="1">
      <rect width="48" height="48" stroke="none"/>
      <rect x="0.5" y="0.5" width="47" height="47" fill="none"/>
    </g>
    <g id="Сгруппировать_2448" data-name="Сгруппировать 2448" transform="translate(522.646 -449.723)">
      <g id="Сгруппировать_47" data-name="Сгруппировать 47" transform="translate(33.354 783.723)">
        <g id="Сгруппировать_46" data-name="Сгруппировать 46" transform="translate(0 0)" clip-path="url(#clip-path)">
          <path id="Контур_340" data-name="Контур 340" d="M25.441,1.71H21.049V.881a.881.881,0,1,0-1.762,0V1.71H16.309V.881a.881.881,0,1,0-1.762,0V1.71H11.612V.881a.881.881,0,1,0-1.762,0V1.71H7.036V.881a.881.881,0,0,0-1.762,0V1.71H.881A.881.881,0,0,0,0,2.592v24.56a.881.881,0,0,0,.881.881h24.56a.881.881,0,0,0,.881-.881V2.592a.881.881,0,0,0-.881-.881M5.274,3.473V4.3a.881.881,0,0,0,1.762,0V3.473H9.849V4.3a.881.881,0,1,0,1.762,0V3.473h2.935V4.3a.881.881,0,0,0,1.762,0V3.473h2.977V4.3a.881.881,0,1,0,1.762,0V3.473H24.56V7.958H1.762V3.473ZM1.762,8.839h22.8V26.271H1.762Z" transform="translate(0 0)" fill="#fff"/>
          <path id="Контур_341" data-name="Контур 341" d="M18.188,11.932a.874.874,0,1,0,.873.873.873.873,0,0,0-.873-.873" transform="translate(-2.057 -1.417)" fill="#fff"/>
          <path id="Контур_342" data-name="Контур 342" d="M21.705,11.932a.874.874,0,1,0,.873.873.873.873,0,0,0-.873-.873" transform="translate(-2.475 -1.417)" fill="#fff"/>
          <path id="Контур_343" data-name="Контур 343" d="M25.223,11.932a.874.874,0,1,0,.873.873.873.873,0,0,0-.873-.873" transform="translate(-2.893 -1.417)" fill="#fff"/>
          <path id="Контур_344" data-name="Контур 344" d="M4.118,15.434a.874.874,0,1,0,.873.873.873.873,0,0,0-.873-.873" transform="translate(-0.385 -1.833)" fill="#fff"/>
          <path id="Контур_345" data-name="Контур 345" d="M7.635,15.434a.874.874,0,1,0,.873.873.874.874,0,0,0-.873-.873" transform="translate(-0.803 -1.833)" fill="#fff"/>
          <path id="Контур_346" data-name="Контур 346" d="M11.153,17.18a.874.874,0,1,0-.873-.873.873.873,0,0,0,.873.873" transform="translate(-1.221 -1.833)" fill="#fff"/>
          <path id="Контур_347" data-name="Контур 347" d="M14.67,15.434a.874.874,0,1,0,.873.873.873.873,0,0,0-.873-.873" transform="translate(-1.639 -1.833)" fill="#fff"/>
          <path id="Контур_348" data-name="Контур 348" d="M18.188,15.434a.874.874,0,1,0,.873.873.873.873,0,0,0-.873-.873" transform="translate(-2.057 -1.833)" fill="#fff"/>
          <path id="Контур_349" data-name="Контур 349" d="M21.705,15.434a.874.874,0,1,0,.873.873.873.873,0,0,0-.873-.873" transform="translate(-2.475 -1.833)" fill="#fff"/>
          <path id="Контур_350" data-name="Контур 350" d="M25.223,15.434a.874.874,0,1,0,.873.873.873.873,0,0,0-.873-.873" transform="translate(-2.893 -1.833)" fill="#fff"/>
          <path id="Контур_351" data-name="Контур 351" d="M4.118,18.935a.874.874,0,1,0,.873.873.873.873,0,0,0-.873-.873" transform="translate(-0.385 -2.249)" fill="#fff"/>
          <path id="Контур_352" data-name="Контур 352" d="M7.635,18.935a.874.874,0,1,0,.873.873.874.874,0,0,0-.873-.873" transform="translate(-0.803 -2.249)" fill="#fff"/>
          <path id="Контур_353" data-name="Контур 353" d="M11.034,17.935a1.755,1.755,0,1,0,1.754,1.755,1.757,1.757,0,0,0-1.754-1.755m0,2.629a.874.874,0,1,1,.873-.873.874.874,0,0,1-.873.873" transform="translate(-1.102 -2.13)" fill="#fff"/>
          <path id="Контур_354" data-name="Контур 354" d="M14.67,18.935a.874.874,0,1,0,.873.873.873.873,0,0,0-.873-.873" transform="translate(-1.639 -2.249)" fill="#fff"/>
          <path id="Контур_355" data-name="Контур 355" d="M18.188,18.935a.874.874,0,1,0,.873.873.873.873,0,0,0-.873-.873" transform="translate(-2.057 -2.249)" fill="#fff"/>
          <path id="Контур_356" data-name="Контур 356" d="M21.705,18.935a.874.874,0,1,0,.873.873.873.873,0,0,0-.873-.873" transform="translate(-2.475 -2.249)" fill="#fff"/>
          <path id="Контур_357" data-name="Контур 357" d="M25.223,18.935a.874.874,0,1,0,.873.873.873.873,0,0,0-.873-.873" transform="translate(-2.893 -2.249)" fill="#fff"/>
          <path id="Контур_358" data-name="Контур 358" d="M4.118,22.437a.874.874,0,1,0,.873.873.873.873,0,0,0-.873-.873" transform="translate(-0.385 -2.665)" fill="#fff"/>
          <path id="Контур_359" data-name="Контур 359" d="M7.635,22.437a.874.874,0,1,0,.873.873.874.874,0,0,0-.873-.873" transform="translate(-0.803 -2.665)" fill="#fff"/>
          <path id="Контур_360" data-name="Контур 360" d="M11.153,22.437a.874.874,0,1,0,.873.873.873.873,0,0,0-.873-.873" transform="translate(-1.221 -2.665)" fill="#fff"/>
          <path id="Контур_361" data-name="Контур 361" d="M14.67,22.437a.874.874,0,1,0,.873.873.873.873,0,0,0-.873-.873" transform="translate(-1.639 -2.665)" fill="#fff"/>
          <path id="Контур_362" data-name="Контур 362" d="M18.188,22.437a.874.874,0,1,0,.873.873.873.873,0,0,0-.873-.873" transform="translate(-2.057 -2.665)" fill="#fff"/>
          <path id="Контур_363" data-name="Контур 363" d="M21.705,22.437a.874.874,0,1,0,.873.873.873.873,0,0,0-.873-.873" transform="translate(-2.475 -2.665)" fill="#fff"/>
          <path id="Контур_364" data-name="Контур 364" d="M25.223,22.437a.874.874,0,1,0,.873.873.873.873,0,0,0-.873-.873" transform="translate(-2.893 -2.665)" fill="#fff"/>
          <path id="Контур_365" data-name="Контур 365" d="M4.118,25.939a.874.874,0,1,0,.873.873.873.873,0,0,0-.873-.873" transform="translate(-0.385 -3.081)" fill="#fff"/>
          <path id="Контур_366" data-name="Контур 366" d="M7.635,25.939a.874.874,0,1,0,.873.873.874.874,0,0,0-.873-.873" transform="translate(-0.803 -3.081)" fill="#fff"/>
          <path id="Контур_367" data-name="Контур 367" d="M11.153,25.939a.874.874,0,1,0,.873.873.873.873,0,0,0-.873-.873" transform="translate(-1.221 -3.081)" fill="#fff"/>
          <path id="Контур_368" data-name="Контур 368" d="M14.67,25.939a.874.874,0,1,0,.873.873.873.873,0,0,0-.873-.873" transform="translate(-1.639 -3.081)" fill="#fff"/>
          <path id="Контур_369" data-name="Контур 369" d="M18.188,25.939a.874.874,0,1,0,.873.873.873.873,0,0,0-.873-.873" transform="translate(-2.057 -3.081)" fill="#fff"/>
          <path id="Контур_370" data-name="Контур 370" d="M21.705,25.939a.874.874,0,1,0,.873.873.873.873,0,0,0-.873-.873" transform="translate(-2.475 -3.081)" fill="#fff"/>
          <path id="Контур_371" data-name="Контур 371" d="M25.223,25.939a.874.874,0,1,0,.873.873.873.873,0,0,0-.873-.873" transform="translate(-2.893 -3.081)" fill="#fff"/>
        </g>
      </g>
    </g>
  </g>
</svg>
