<svg xmlns="http://www.w3.org/2000/svg" xmlns:xlink="http://www.w3.org/1999/xlink" width="39.164" height="30.427" viewBox="0 0 39.164 30.427">
  <defs>
    <clipPath id="clip-path">
      <rect id="Прямоугольник_32" data-name="Прямоугольник 32" width="39.164" height="30.427" fill="none"/>
    </clipPath>
  </defs>
  <g id="Сгруппировать_21" data-name="Сгруппировать 21" clip-path="url(#clip-path)">
    <path id="Контур_217" data-name="Контур 217" d="M20.681,0c.151.456-.23.726-.377,1.077-.073.177-.233.356-.081.549.133.169.319.03.484.032.418,0,.821-.589,1.209-.138.275.318.087.813.125,1.228.011.123,0,.248.022.37.1.683-.15.761-.67.4a.2.2,0,0,0-.066-.032c-.365-.089-.795-.56-1.067-.2s.134.818.34,1.2a.526.526,0,0,0,.149.163,2.8,2.8,0,0,1,1.119,3.528c.792-.866,2-1.028,2.8-1.832a.7.7,0,0,1,.555-.167c.123.008.31.078.359.024.548-.619,1.205-.46,1.921-.442.479.012.934-.226,1.333.225.118.133.279.059.417.012a.686.686,0,0,1,.64.075,21.672,21.672,0,0,0,2.9,1.634,1.687,1.687,0,0,1,.773.667c.575,1.275,1.662,1.329,2.845,1.49.673.092,1.265.766,1.891,1.171.31.2.347.886.755,1.235.163.139.1.419.058.641a1.188,1.188,0,0,0-.072.5A3.482,3.482,0,0,1,38.555,16c-.222.485-.724,1.007-.266,1.676a.828.828,0,0,1-.2,1.02.892.892,0,0,1-1.006.265c-.857-.246-.989-.159-1.072.693-.025.255-.053.545-.265.668-1.067.616-1.218,2.013-2.284,2.63a.4.4,0,0,0-.083.685.488.488,0,0,1,.118.612,1.32,1.32,0,0,0-.019,1.511c.192.312-.134.479-.347.638a.747.747,0,0,0-.285,1.023c.374.848.147,1.284-.749,1.53a41.47,41.47,0,0,1-5.463,1.007,58.038,58.038,0,0,1-8.724.462,58,58,0,0,1-9.721-.97,5.434,5.434,0,0,1-.859-.225c-.671-.246-.873-.655-.539-1.265.256-.467.213-.775-.212-1.068a.583.583,0,0,1-.165-.943c.229-.3.321-.565-.075-.867a.544.544,0,0,1-.006-.9c.512-.383.277-.7-.061-.938A3.845,3.845,0,0,1,4.8,21.433c-.079-.216-.236-.27-.452-.309a1.068,1.068,0,0,1-1.027-1.27c.045-.5-.158-.713-.652-.349a.876.876,0,0,1-.984.04c-.365-.2-.362-.564-.323-.916a2.815,2.815,0,0,0-.566-1.81,9.674,9.674,0,0,1-.629-1.753,3.361,3.361,0,0,1,.207-2.54c.267-.58.454-1.373,1.238-1.62.07-.022.173-.044.195-.095.518-1.2,1.64-.7,2.508-.866a.678.678,0,0,0,.565-.355A5.357,5.357,0,0,1,6.684,7.9,7.775,7.775,0,0,0,8.613,6.544c.044-.057.117-.141.169-.136.826.076,1.442-.85,2.325-.486a.457.457,0,0,0,.418-.081c.107-.06.247-.178.329-.149.79.284,1.722.233,2.38.778.525.435,1.179.613,1.686,1.047a.884.884,0,0,0,.352.1c.259.063.335.565.639.377.36-.222.017-.586.007-.884a2.483,2.483,0,0,1,.9-2.166,1.265,1.265,0,0,0,.4-.425c.163-.394.564-.847.219-1.226-.266-.292-.694.056-1.011.2-.585.268-.842.134-.8-.518,0-.049,0-.1,0-.148.029-.44-.177-.979.1-1.3.361-.413.788.171,1.214.157.163-.005.362.13.47-.062.091-.162-.024-.334-.1-.489C18.147.766,17.769.478,17.863,0ZM18.744,24.372c-.816.578-.811.572-.037,1.189a1.514,1.514,0,0,0,.629.37,4.471,4.471,0,0,0,3.116-1.078,1.2,1.2,0,0,0,.063-.308c-.726.34-1.16-.191-1.647-.513-1.056-.7-1.292-.669-2.123.341M7.478,22.7c-.2-.147-.39-.3-.588-.441a2.239,2.239,0,0,1-.9-1.317.4.4,0,0,1,.137-.466c.142-.091.28-.018.417.049.275.135.583.528.843.261.293-.3-.374-.491-.318-.678a1.415,1.415,0,0,0-.856-1.849c-.136-.071-.028-.455-.279-.454-.266,0-.393.275-.518.484a2.292,2.292,0,0,0-.2.477c-.043.133-.169.284-.044.412s.27.023.4-.048c.178-.1.5-.165.377.121-.195.466.314.45.332.654.039.451-.555.192-.689.5a.422.422,0,0,0-.059.208c.135.78-.032,1.687.923,2.122a2.228,2.228,0,0,1,.77.809c.111-.332-.13-.689.253-.856a.954.954,0,0,0,.685.4,3.58,3.58,0,0,0,3.4-1.2c.337-.408.5-.4.668.094.062.184.145.447.365.407.3-.056.155-.358.179-.56.023-.186-.114-.428.1-.541s.358.111.518.208a4.042,4.042,0,0,0,5.44-.642c.138-.132.244-.362.471-.3.248.065.18.318.2.5.039.3.073.7.385.723.352.025.359-.4.423-.676.19-.813.271-.872.81-.271a4.011,4.011,0,0,0,5.2.574c.405-.267.832-.552.78.327-.011.189.047.444.319.39.255-.05.152-.306.2-.485.085-.312-.394-1.023.528-.826.138.03.118-.178.1-.3-.036-.313-.072-.625-.11-.956-.208.051-.138.442-.408.344-.2-.074-.143-.3-.139-.458a1.248,1.248,0,0,0-.564-1.068c-.241-.18-.961-.222-.123-.619.151-.071,0-.138-.065-.2-.406-.377-.035-.373.2-.363a.948.948,0,0,0,1.114-.836c.011-.058.085-.1.127-.152.223.1.057.339.2.459.209-.054.2-.481.489-.337.233.116.043.356.028.537-.033.389.126.645.511.673.583.042.815.128.128.486a.15.15,0,0,0-.035.248c.545.634.043.5-.353.518-.209.008-.478.109-.522.338-.038.194.19.329.335.454.105.091.172.246.408.055.317-.256.653-.081.765.308.045.157.078.217.217.18.05-.014.127-.123.113-.152-.271-.587.222-.682.551-.9.172-.116.382-.272.194-.561-.218.1-.143.582-.439.457s-.107-.48-.122-.735a.177.177,0,0,1,.022-.071c.157-.39.668-.841.435-1.132-.268-.334-.822-.008-1.24.135a.327.327,0,0,1-.267-.048.145.145,0,0,1,.028-.246c.673-.2.567-.966,1.115-1.42a6.176,6.176,0,0,1-3.809-.786c.452.505-.025,1.131.292,1.637.11.176.275.426.036.6-.262.188-.47-.037-.624-.225a1.378,1.378,0,0,0-1.07-.579c-.36,0-.561.07-.358.532a3.2,3.2,0,0,1,.147,2.132c-.066.254-.475.489-.251.7.244.231.659.109.993.016a2.669,2.669,0,0,0,.467-.221c.187-.093.365-.349.584-.15.194.176.042.421-.024.625a3.217,3.217,0,0,1-3.094,2.111,3.581,3.581,0,0,1-3.416-2.167c-.139-.436-.311-.991.543-.649a.367.367,0,0,0,.278-.04c.393-.227.678-.229.833.284.077.255.342.16.506.116.227-.06.11-.22.024-.34-.16-.223-.039-.366.136-.493.662-.478.557-.912-.074-1.314a.317.317,0,0,1-.122-.5c.384-.555,0-.535-.389-.545a1.483,1.483,0,0,0-1.08.4.931.931,0,0,1-.864.32l.006.008c.652-.689.685-1.7,1.214-2.493-.7.061-1.407.385-2.161.446-.728.059-1.355-.642-2.154-.241.6-.272.591.236.542.458a1.144,1.144,0,0,0,.544,1.323c.119.081.25.208.134.366s-.268.086-.4.012a3.132,3.132,0,0,0-1.2-.546c-.356-.032-.9-.2-.606.544.117.293-.118.448-.288.624-.335.344-.388.68.043.991a.53.53,0,0,1,.243.7c-.163.4.077.452.4.461a3.392,3.392,0,0,0,1.61-.494c.194-.1.4-.286.61-.121.246.195.083.462.012.687a3.671,3.671,0,0,1-6.747.232c-.09-.224-.272-.485-.093-.7.22-.26.442.032.657.108.139.049.269.124.409.172a1.409,1.409,0,0,0,1.014.068c.4-.179-.07-.467.008-.7a5.042,5.042,0,0,1,.2-.472c.07-.155.232-.376.082-.473-.649-.423-.524-.985-.237-1.619a4.392,4.392,0,0,0-1.17.342c-.341.142-.585.778-.96.457-.354-.3.147-.7.284-1.039a.627.627,0,0,0-.2-.73c-.141-.138-.292-.422-.529-.309a18.252,18.252,0,0,1-2.422.846c-.232.073-.514.195-.541.448s.273.381.453.543.626.2.465.541c-.127.265-.439.021-.666-.033-.072-.017-.143-.04-.216-.05-.468-.067-.962-.177-.6.607a.843.843,0,0,1-.037.575.663.663,0,0,0,.384.909c.2.111.5.147.432.5-.14.73.3.6.695.436a4.263,4.263,0,0,0,.883-.532c.348-.262.624-.252.864.124l-.007-.01a2.433,2.433,0,0,1-2.4,3,9.625,9.625,0,0,1-1.6-.176m9.1,5.878c-.248-.481-.341-1.037-.808-.712s-.191.912-.191,1.383c0,.321.226.421.548.462.833.106,1.668.036,2.5.073a45.432,45.432,0,0,0,5.838-.182c.785-.066,1.564-.2,2.346-.306.453-.06.531-.369.508-.753-.016-.278-.016-.605-.392-.593-1.124.037-2.2-.341-3.321-.332-1.43.011-2.861-.027-4.292-.028-1.413,0-1.413.007-1.539,1.321,0,.014-.039.024-.069.042-.235-.111-.123-.338-.151-.51-.049-.3.077-.7-.376-.77-.49-.07-.582.316-.6.9m9.749-8.427a2.685,2.685,0,0,1-1.7-.326c.4-.79-.188-1.512-.147-2.275.006-.1.132-.2.218-.292a.568.568,0,0,0,.131-.605c-.248-1-.133-1.162.9-.993.667.11.758-.137.7-.678-.063-.628.1-1.028.866-.847.375.089.548-.2.62-.5.087-.354-.265-.272-.44-.352a1.434,1.434,0,0,0-.931-.157c-.592.134-1.152.271-1.676-.276a1.453,1.453,0,0,0-.949-.355c-.43-.013-.724.1-.694.616a4.721,4.721,0,0,1-.375,2.1c-.053.128-.133.388,0,.4.925.061.821.591.608,1.208a.334.334,0,0,0,.11.265c.558.514.72,1.034.085,1.616a.479.479,0,0,0-.074.345c.082.991.086.993-.942.952-.2-.008-.392-.048-.589-.06-.117-.008-.273-.039-.308.117a.342.342,0,0,0,.1.254,2.9,2.9,0,0,0,4.487-.154M13.167,16.037a1.445,1.445,0,0,0,.194-.024c.4-.119.825-.418,1.2-.237.542.258.194.766.165,1.186a.712.712,0,0,0,.4.666c.321.153.363-.239.525-.391.237-.224.184-.478.063-.748-.182-.409-.276-.793.393-.794.254,0,.284-.161.211-.353a8.058,8.058,0,0,1-.5-2.607c-.016-.466-.284-.559-.714-.415a3.76,3.76,0,0,0-1.667,1.058c-.128.144-.321.484-.512.244-.32-.4-.582-.078-.856-.028-.158.029-.471-.014-.4.3a.4.4,0,0,0,.551.343c.853-.275.978.2.94.879-.016.292,0,.586,0,.921m18.05.306c.928.253.926.252.513,1.063-.054.105-.14.242-.112.332a3.3,3.3,0,0,0,.321.651.366.366,0,0,0,.245-.086c.317-.452.956-.626,1.046-1.282.053-.386.293-.469.639-.233.184.127.362.351.651.154a1.292,1.292,0,0,0-.078-2.335c-.448-.251-1.137-.543-1.438-.274a6.044,6.044,0,0,0-1.787,2.011m-23.007.279c-.3-.272-.688-.381-.738-.875-.041-.405-1.348-1.191-1.7-1.152a2.511,2.511,0,0,0-1.756,1.532c-.037.185-.13.506.11.5.535-.015.579.389.727.7.2.415.385.433.7.1.544-.579.644-.552.986.159.053.111.062.272.147.334.29.211.7.611.89.531.378-.159.113-.595.017-.91-.259-.858-.26-.861.618-.917M6.727,24.4l.041.365c7-1.986,14.122-2.15,21.3-1.585A52.335,52.335,0,0,0,6.727,24.4m20.426,2.739.027-.2c-1.46-.113-2.919-.278-4.381-.328A56.392,56.392,0,0,0,8.616,27.942c-.361.08-.716.187-1.071.289-.177.051-.353.149-.251.361.084.173.247.081.384.017a3.677,3.677,0,0,1,.679-.288,54.769,54.769,0,0,1,13.286-1.445c1.838.019,3.674.17,5.511.261m-11.9-9a.969.969,0,0,0-.249,1.03c.251.915.167,1-.8,1.035a1.725,1.725,0,0,0-.856.076,2.828,2.828,0,0,0,3,1.065,2.792,2.792,0,0,0,2.071-1.574,4.144,4.144,0,0,1-2.171.315c-.351-.069-.575-.249-.453-.6.214-.621-.166-.955-.535-1.344m.638-7.215a22.674,22.674,0,0,1-5.084.856.266.266,0,0,0-.282.277A1.178,1.178,0,0,0,11.7,13.1a5.663,5.663,0,0,0,1.215-.316,9.656,9.656,0,0,1,2.705-1.133c.31-.043.334-.376.277-.725M18.535.511c.042.123.066.212.1.3.192.442.622.933.271,1.36-.3.361-.828.016-1.255-.045a.781.781,0,0,1-.145-.031c-.374-.131-.47.04-.492.391-.035.567.239.514.638.4,1.391-.384,1.449-.329,1.262,1.045-.007.049-.022.1-.03.145-.038.229.081.324.292.316.188-.006.437.064.5-.2a1.54,1.54,0,0,0-.043-.508c-.122-.976.026-1.121.967-.943.122.023.244.04.364.071.422.111.479-.154.435-.455-.089-.6-.486-.249-.735-.187-1.076.267-1.319.073-.971-.98.23-.7-.047-.769-.6-.721-.17.015-.341.023-.562.038M6.885,21.45a2.386,2.386,0,0,0,2.956.739A1.543,1.543,0,0,0,10.856,20.3a2.817,2.817,0,0,1-1.629.8c-.462.027-.79-.087-.754-.637a.882.882,0,0,0-.744-.986c-.2.458.113.752.262,1.068.239.506.058.744-.436.834-.192.035-.388.041-.67.069M28.931,20.3a.779.779,0,0,0,.242.63,2.659,2.659,0,0,0,3.358.756c.157-.113.354-.223.318-.453-.028-.18-.223-.162-.358-.2-.85-.251-.863-.256-.408-1.1a.541.541,0,0,0-.107-.727c-.225-.186-.392.082-.557.208a.914.914,0,0,0-.323.786c0,.489-.242.639-.718.538a8.387,8.387,0,0,1-1.446-.437m6.84-5.261c.608-1.435.381-2.446-.608-3.006-.682-.386-.82-.334-1.134.394a5.735,5.735,0,0,1-.428.86c-.251.389-.092.531.289.578a2.306,2.306,0,0,1,1.881,1.174M23.421,10.984c-.409-.13-.427.057-.349.372s.29.416.583.468a4.016,4.016,0,0,1,1.069.268,16.015,16.015,0,0,0,3.236.7c.527.136.553-.391.705-.684.14-.268-.1-.331-.316-.332a19.413,19.413,0,0,1-4.928-.789m-13.2,2.527.157-.091a2.146,2.146,0,0,0-.238-.523,3.787,3.787,0,0,1-.561-3.013,1.941,1.941,0,0,1,1.69-1.87,3.939,3.939,0,0,1,2.238.306,8.865,8.865,0,0,0,1.146.409A6.416,6.416,0,0,0,12.285,7.7a2.681,2.681,0,0,0-3.46,2.9,4.834,4.834,0,0,0,1.4,2.911M3.561,15.722a4.246,4.246,0,0,1,.985-1.169c.334-.229.967-.188.988-.625.017-.349-.4-.7-.568-1.08-.244-.533-.567-.518-1-.235a2.109,2.109,0,0,0-.407,3.109M23.1,9.226c.218.123.329.011.455-.057a9.128,9.128,0,0,1,2.631-1.282,2.923,2.923,0,0,1,3.07.765c.629.761.387,1.681.276,2.552a6.219,6.219,0,0,0-.263,1.376,3.85,3.85,0,0,0,.747-2.694A2.355,2.355,0,0,0,27.86,7.474,6.01,6.01,0,0,0,23.1,9.226M13.141,24.217a1.943,1.943,0,0,0-1.079.462c-.862.63-.851.733.105,1.184a2.806,2.806,0,0,1,.5.312.483.483,0,0,0,.672.012c.381-.367.95-.54,1.148-1.092a.213.213,0,0,0-.077-.19,4.751,4.751,0,0,0-1.264-.688m8.25-17.022c-.3-.119.041-.641-.428-.659-.775-.028-1.357-.285-1.227-1.244.03-.223-.131-.365-.37-.367s-.429.1-.405.332c.093.889-.372,1.247-1.175,1.353a.366.366,0,0,0-.36.4c.041.278.292.241.473.207a10.832,10.832,0,0,1,3.491-.021M18.275,9.1c-.2.651-.335,1.177-.529,1.678a5.353,5.353,0,0,0-.3,2.18c.027.7.619.436.956.513.474.108.2-.292.236-.487.142-.862-.139-1.716-.048-2.571A2.137,2.137,0,0,0,18.275,9.1m2.42.014c-.145.149-.2.179-.208.218-.212,1.333.124,2.674-.054,4.01-.02.153.144.18.262.2.178.03.355.021.419-.193s.091-.429.166-.632c.479-1.29-.373-2.338-.585-3.6m-3.9,4.946c.118-.768-.056-1.4.068-2.042a14.7,14.7,0,0,1,.7-2.335.834.834,0,0,0-.257-1.06.309.309,0,0,0-.41.011c-.155.133-.1.274.038.367.42.279.227.6.065.905a7.79,7.79,0,0,0-.7,2.787,1.42,1.42,0,0,0,.49,1.367m-9.748.445c-1.4-1.791-2.336-3.615-.606-5.742a2.627,2.627,0,0,0-1.416,2.342,4.274,4.274,0,0,0,2.022,3.4m25.549,8.7a3.939,3.939,0,0,1,1-1.32,1.392,1.392,0,0,0,.144-1.737c-.208-.412-.755-.584-.724-1.126.009-.16.067-.371-.165-.43a.341.341,0,0,0-.262.089.331.331,0,0,0-.044.47c.463.438.2.808-.119,1.17a1.072,1.072,0,0,0,.831.053c.187-.032.4-.162.538.052.12.184.012.381-.065.562a1.9,1.9,0,0,1-.843,1c-.568.288-.614.645-.287,1.22m-.581-8.987c1-1.226,2.048-2.5,1.708-4.236-.253-1.294-.658-1.652-1.391-1.744,1.817,2.127.956,4.047-.317,5.98m3.465,2.428a1.186,1.186,0,0,0-.543,1.539,1.274,1.274,0,0,0,.167.221c.3-.51.866.1,1.254-.325.316-.345.809-.538.814.334.29-.2.673-.275.527-.663a.645.645,0,0,0-.747-.343c-.194.022-.383.088-.577.106-.742.069-1.05-.235-.9-.868m-31.236.689c-.022.892-.314,1.093-1.144.838a1.286,1.286,0,0,0-1.069.133.482.482,0,0,0-.253.5.434.434,0,0,0,.312.379c.237.077.371-.061.459-.26.222-.5.513-.363.795-.072a1.553,1.553,0,0,1,.207.371c.332-.2.146-.917.695-.448.127.109.3.28.444.128.093-.1.081-.327.065-.492a1.773,1.773,0,0,0-.51-1.075m17.984-3.5a4.555,4.555,0,0,0-.278-3.535c-.185-.339-.477-.672-.155-1.077.129-.163.306-.358.061-.484-.292-.149-.464.117-.516.362a1.954,1.954,0,0,0,.176,1.363,5.194,5.194,0,0,1,.588,3c-.012.127-.094.306.124.369M7.146,13.309A8.233,8.233,0,0,1,6.6,9.576c-.941.823-.72,2.714.541,3.733M28.6,8.921a2.512,2.512,0,0,0-3.2.042c1.073-.071,2.082.452,3.2-.042" transform="translate(0 0)" fill="#e63346"/>
  </g>
</svg>
