<svg xmlns="http://www.w3.org/2000/svg" width="47.302" height="47.302" viewBox="0 0 47.302 47.302">
  <path id="Контур_9816" data-name="Контур 9816" d="M-500.809,1145.862a23.677,23.677,0,0,0-23.651,23.648,23.679,23.679,0,0,0,23.651,23.654,23.679,23.679,0,0,0,23.651-23.654A23.677,23.677,0,0,0-500.809,1145.862Zm3.582,34.454a25.278,25.278,0,0,1-2.912,3.546,5.279,5.279,0,0,1-3.523,1.691,2.058,2.058,0,0,1-1.679-.845,3.12,3.12,0,0,1-.67-2,6.566,6.566,0,0,1,.094-1.186c.062-.336.18-.835.352-1.492l3.343-12.072c.047-.188.086-.36.117-.517a2.387,2.387,0,0,0,.047-.47.957.957,0,0,0-.622-1.044,9.627,9.627,0,0,0-2.451-.2v-.775q1.934-.234,2.784-.364t1.713-.271q1.118-.188,2.12-.423a2.83,2.83,0,0,1,1.131-.152.188.188,0,0,1,.1.2l-4.742,16.768a11.26,11.26,0,0,0-.329,1.6,1.253,1.253,0,0,0,.141.61c.078.187.273.281.587.281q.8,0,2.114-1.386a26.322,26.322,0,0,0,1.9-2.348l.61.517Zm.928-22.439a2.19,2.19,0,0,1-1.656.74,2.14,2.14,0,0,1-1.644-.752,2.6,2.6,0,0,1-.68-1.808,2.634,2.634,0,0,1,.68-1.832,2.143,2.143,0,0,1,1.644-.751,2.178,2.178,0,0,1,1.656.751,2.61,2.61,0,0,1,.693,1.832A2.565,2.565,0,0,1-496.3,1157.877Z" transform="translate(524.46 -1145.862)" fill="#8f7c77"/>
</svg>
