<svg xmlns="http://www.w3.org/2000/svg" width="15.644" height="25" viewBox="0 0 15.644 25">
  <g id="Сгруппировать_2709" data-name="Сгруппировать 2709" transform="translate(-56.697 -34.586)">
    <g id="Сгруппировать_2707" data-name="Сгруппировать 2707" transform="translate(56.697 34.586)">
      <path id="Контур_9827" data-name="Контур 9827" d="M64.519,59.586A7.831,7.831,0,0,1,56.7,51.764V42.408a7.822,7.822,0,1,1,15.644,0v9.356A7.831,7.831,0,0,1,64.519,59.586Zm0-23.913a6.743,6.743,0,0,0-6.735,6.735v9.356a6.735,6.735,0,1,0,13.47,0V42.408A6.743,6.743,0,0,0,64.519,35.673Z" transform="translate(-56.697 -34.586)" fill="#8f7c77"/>
    </g>
    <g id="Сгруппировать_2708" data-name="Сгруппировать 2708" transform="translate(63.441 39.328)">
      <path id="Контур_9828" data-name="Контур 9828" d="M73.555,50.416h0a1.079,1.079,0,0,1-1.079-1.078V46.761a1.079,1.079,0,0,1,1.079-1.079h0a1.079,1.079,0,0,1,1.078,1.079v2.577A1.078,1.078,0,0,1,73.555,50.416Z" transform="translate(-72.476 -45.682)" fill="#8f7c77"/>
    </g>
  </g>
</svg>
